<?xml version="1.0" ?><svg width="100px" height="100px" viewBox="0 0 100 100" version="1.1" xml:space="preserve" xmlns="http://www.w3.org/2000/svg" xmlns:xlink="http://www.w3.org/1999/xlink"><g id="network"/><g id="connection"/><g id="page"/><g id="support"><g><path d="M75,29H51V11c0-0.6-0.4-1-1-1H36c-0.5,0-0.9,0.4-1,0.9L34.2,16c-2.6,0.7-5,1.8-7.4,3.1l-4.1-3.1c-0.4-0.3-1-0.3-1.3,0.1    L10,27.4c-0.4,0.4-0.4,0.9-0.1,1.3l3.1,4.1c-1.3,2.3-2.3,4.8-3.1,7.4L4.9,41C4.4,41.1,4,41.5,4,42V58c0,0.5,0.4,0.9,0.9,1l5.1,0.8    c0.7,2.6,1.8,5,3.1,7.4l-3.1,4.1c-0.3,0.4-0.3,1,0.1,1.3L21.4,84c0.4,0.4,0.9,0.4,1.3,0.1l4.1-3.1c2.3,1.3,4.8,2.3,7.4,3.1    l0.8,5.1c0.1,0.5,0.5,0.9,1,0.9h14c0.1,0,0.3,0,0.4-0.1c0,0,0,0,0,0c0.1-0.1,0.2-0.1,0.3-0.2c0,0,0,0,0,0L68.4,71H75    c11.6,0,21-9.4,21-21S86.6,29,75,29z M36.1,83.1c-0.1-0.4-0.3-0.7-0.7-0.8c-2.8-0.8-5.6-1.9-8.1-3.4c-0.3-0.2-0.8-0.2-1.1,0.1    l-4,3L12.1,71.8l3-4c0.2-0.3,0.3-0.8,0.1-1.1c-1.5-2.6-2.6-5.3-3.4-8.1c-0.1-0.4-0.4-0.7-0.8-0.7L6,57.2V42.8l4.9-0.7    c0.4-0.1,0.7-0.3,0.8-0.7c0.8-2.8,1.9-5.6,3.4-8.1c0.2-0.3,0.2-0.8-0.1-1.1l-3-4l10.1-10.1l4,3c0.3,0.2,0.8,0.3,1.1,0.1    c2.6-1.5,5.3-2.6,8.1-3.4c0.4-0.1,0.7-0.4,0.7-0.8l0.7-4.9H49v17h-6c-11.6,0-21,9.4-21,21s9.4,21,21,21h6v17H36.8L36.1,83.1z     M75,69h-7c-0.3,0-0.5,0.1-0.7,0.3L51,86.5V70c0-0.6-0.4-1-1-1h-7c-10.5,0-19-8.5-19-19s8.5-19,19-19h32c10.5,0,19,8.5,19,19    S85.5,69,75,69z" style="stroke:rgb(255,255,255);stroke-width:1"/><path d="M59,43c-3.9,0-7,3.1-7,7s3.1,7,7,7s7-3.1,7-7S62.9,43,59,43z M59,55c-2.8,0-5-2.2-5-5s2.2-5,5-5s5,2.2,5,5S61.8,55,59,55z    " style="stroke:rgb(255,255,255);stroke-width:1"/><path d="M79,43c-3.9,0-7,3.1-7,7s3.1,7,7,7s7-3.1,7-7S82.9,43,79,43z M79,55c-2.8,0-5-2.2-5-5s2.2-5,5-5s5,2.2,5,5S81.8,55,79,55z    " style="stroke:rgb(255,255,255);stroke-width:1"/><path d="M39,43c-3.9,0-7,3.1-7,7s3.1,7,7,7s7-3.1,7-7S42.9,43,39,43z M39,55c-2.8,0-5-2.2-5-5s2.2-5,5-5s5,2.2,5,5S41.8,55,39,55z    " style="stroke:rgb(255,255,255);stroke-width:1"/></g></g><g id="configuration"/><g id="cloud_storage"/><g id="password"/><g id="search_engine"/><g id="history"/><g id="SEO"/><g id="optimization"/><g id="backlink"/><g id="performance"/><g id="analytics"/><g id="security"/><g id="dark_web"/><g id="video_player"/><g id="upload_download"/><g id="incognito_tab"/><g id="bookmark"/></svg>
