<?xml version="1.0" encoding="UTF-8" standalone="no"?>
<!DOCTYPE svg PUBLIC "-//W3C//DTD SVG 1.0//EN"
 "http://www.w3.org/TR/2001/REC-SVG-20010904/DTD/svg10.dtd">
<!-- Generated by dot version 1.10 (Wed Jul 9 23:09:17 EDT 2003)
     Title: BDD    Pages: 1 -->
<svg width="638" height="435"
 viewBox = "-1 -1 538 371"
 xmlns="http://www.w3.org/2000/svg">
<g id="graph0" class="graph" transform = "scale(0.505618)"
 style="font-family:Times-Roman;font-size:14.00;">
<title>BDD</title>
<g id="node2" class="node"><title>183</title>
<ellipse cx="558" cy="38" rx="20" ry="16" style="fill:none;stroke:black;"/>
<text text-anchor="middle" x="558" y="44" style="font-family:Helvetica;font-size:16.00;">x1</text>
</g>
<g id="node4" class="node"><title>133</title>
<ellipse cx="504" cy="122" rx="22" ry="16" style="fill:none;stroke:black;"/>
<text text-anchor="middle" x="504" y="128" style="font-family:Helvetica;font-size:16.00;">x3</text>
</g>
<g id="edge11" class="edge"><title>183-&gt;133</title>
<path style="fill:none;stroke:black;stroke-dasharray:1,5;" d="M549,53C541,66 529,85 519,99"/>
<polygon style="fill:black;stroke:black;" points="521,100 514,107 517,97 521,100"/>
<text text-anchor="middle" x="541" y="83" style="font-family:Helvetica;font-size:8.00;">0</text>
</g>
<g id="node5" class="node"><title>181</title>
<ellipse cx="601" cy="122" rx="22" ry="16" style="fill:none;stroke:black;"/>
<text text-anchor="middle" x="601" y="128" style="font-family:Helvetica;font-size:16.00;">x3</text>
</g>
<g id="edge13" class="edge"><title>183-&gt;181</title>
<path style="fill:none;stroke:black;" d="M566,53C572,66 581,84 589,98"/>
<polygon style="fill:black;stroke:black;" points="591,96 593,106 586,98 591,96"/>
<text text-anchor="middle" x="586" y="83" style="font-family:Helvetica;font-size:8.00;">1</text>
</g>
<g id="node7" class="node"><title>100</title>
<ellipse cx="426" cy="206" rx="22" ry="16" style="fill:none;stroke:black;"/>
<text text-anchor="middle" x="426" y="212" style="font-family:Helvetica;font-size:16.00;">x5</text>
</g>
<g id="edge15" class="edge"><title>133-&gt;100</title>
<path style="fill:none;stroke:black;stroke-dasharray:1,5;" d="M491,136C479,150 459,171 445,186"/>
<polygon style="fill:black;stroke:black;" points="448,187 439,192 444,183 448,187"/>
<text text-anchor="middle" x="478" y="167" style="font-family:Helvetica;font-size:8.00;">0</text>
</g>
<g id="node8" class="node"><title>129</title>
<ellipse cx="504" cy="206" rx="22" ry="16" style="fill:none;stroke:black;"/>
<text text-anchor="middle" x="504" y="212" style="font-family:Helvetica;font-size:16.00;">x5</text>
</g>
<g id="edge17" class="edge"><title>133-&gt;129</title>
<path style="fill:none;stroke:black;" d="M504,139C504,150 504,167 504,180"/>
<polygon style="fill:black;stroke:black;" points="507,179 504,189 502,179 507,179"/>
<text text-anchor="middle" x="509" y="167" style="font-family:Helvetica;font-size:8.00;">1</text>
</g>
<g id="node9" class="node"><title>180</title>
<ellipse cx="601" cy="206" rx="22" ry="16" style="fill:none;stroke:black;"/>
<text text-anchor="middle" x="601" y="212" style="font-family:Helvetica;font-size:16.00;">x5</text>
</g>
<g id="edge19" class="edge"><title>181-&gt;180</title>
<path style="fill:none;stroke:black;stroke-dasharray:1,5;" d="M601,139C601,150 601,167 601,180"/>
<polygon style="fill:black;stroke:black;" points="604,179 601,189 599,179 604,179"/>
<text text-anchor="middle" x="607" y="167" style="font-family:Helvetica;font-size:8.00;">0</text>
</g>
<g id="node10" class="node"><title>174</title>
<ellipse cx="834" cy="206" rx="22" ry="16" style="fill:none;stroke:black;"/>
<text text-anchor="middle" x="834" y="212" style="font-family:Helvetica;font-size:16.00;">x5</text>
</g>
<g id="edge21" class="edge"><title>181-&gt;174</title>
<path style="fill:none;stroke:black;" d="M621,129C662,144 758,179 806,196"/>
<polygon style="fill:black;stroke:black;" points="806,193 814,199 804,198 806,193"/>
<text text-anchor="middle" x="738" y="167" style="font-family:Helvetica;font-size:8.00;">1</text>
</g>
<g id="node12" class="node"><title>74</title>
<ellipse cx="115" cy="290" rx="22" ry="16" style="fill:none;stroke:black;"/>
<text text-anchor="middle" x="115" y="296" style="font-family:Helvetica;font-size:16.00;">x7</text>
</g>
<g id="edge23" class="edge"><title>100-&gt;74</title>
<path style="fill:none;stroke:black;stroke-dasharray:1,5;" d="M405,212C351,226 207,265 145,282"/>
<polygon style="fill:black;stroke:black;" points="146,284 136,284 145,279 146,284"/>
<text text-anchor="middle" x="306" y="251" style="font-family:Helvetica;font-size:8.00;">0</text>
</g>
<g id="node13" class="node"><title>94</title>
<ellipse cx="427" cy="290" rx="22" ry="16" style="fill:none;stroke:black;"/>
<text text-anchor="middle" x="427" y="296" style="font-family:Helvetica;font-size:16.00;">x7</text>
</g>
<g id="edge25" class="edge"><title>100-&gt;94</title>
<path style="fill:none;stroke:black;" d="M426,223C426,234 426,251 427,264"/>
<polygon style="fill:black;stroke:black;" points="430,263 427,273 425,263 430,263"/>
<text text-anchor="middle" x="431" y="251" style="font-family:Helvetica;font-size:8.00;">1</text>
</g>
<g id="node14" class="node"><title>128</title>
<ellipse cx="292" cy="290" rx="22" ry="16" style="fill:none;stroke:black;"/>
<text text-anchor="middle" x="292" y="296" style="font-family:Helvetica;font-size:16.00;">x7</text>
</g>
<g id="edge27" class="edge"><title>129-&gt;128</title>
<path style="fill:none;stroke:black;stroke-dasharray:1,5;" d="M484,213C440,229 338,267 323,273 321,274 319,275 318,275"/>
<polygon style="fill:black;stroke:black;" points="319,277 309,280 317,273 319,277"/>
<text text-anchor="middle" x="417" y="251" style="font-family:Helvetica;font-size:8.00;">0</text>
</g>
<g id="node15" class="node"><title>126</title>
<ellipse cx="520" cy="290" rx="22" ry="16" style="fill:none;stroke:black;"/>
<text text-anchor="middle" x="520" y="296" style="font-family:Helvetica;font-size:16.00;">x7</text>
</g>
<g id="edge29" class="edge"><title>129-&gt;126</title>
<path style="fill:none;stroke:black;" d="M507,223C509,234 512,251 515,264"/>
<polygon style="fill:black;stroke:black;" points="517,263 517,273 512,264 517,263"/>
<text text-anchor="middle" x="517" y="251" style="font-family:Helvetica;font-size:8.00;">1</text>
</g>
<g id="node16" class="node"><title>179</title>
<ellipse cx="354" cy="290" rx="22" ry="16" style="fill:none;stroke:black;"/>
<text text-anchor="middle" x="354" y="296" style="font-family:Helvetica;font-size:16.00;">x7</text>
</g>
<g id="edge31" class="edge"><title>180-&gt;179</title>
<path style="fill:none;stroke:black;stroke-dasharray:1,5;" d="M580,212C543,224 463,249 396,273 392,275 388,276 383,278"/>
<polygon style="fill:black;stroke:black;" points="384,280 374,282 382,276 384,280"/>
<text text-anchor="middle" x="501" y="251" style="font-family:Helvetica;font-size:8.00;">0</text>
</g>
<g id="node17" class="node"><title>177</title>
<ellipse cx="705" cy="290" rx="22" ry="16" style="fill:none;stroke:black;"/>
<text text-anchor="middle" x="705" y="296" style="font-family:Helvetica;font-size:16.00;">x7</text>
</g>
<g id="edge33" class="edge"><title>180-&gt;177</title>
<path style="fill:none;stroke:black;" d="M616,218C634,232 663,256 683,273"/>
<polygon style="fill:black;stroke:black;" points="683,270 690,278 680,274 683,270"/>
<text text-anchor="middle" x="663" y="251" style="font-family:Helvetica;font-size:8.00;">1</text>
</g>
<g id="node18" class="node"><title>173</title>
<ellipse cx="834" cy="290" rx="22" ry="16" style="fill:none;stroke:black;"/>
<text text-anchor="middle" x="834" y="296" style="font-family:Helvetica;font-size:16.00;">x7</text>
</g>
<g id="edge35" class="edge"><title>174-&gt;173</title>
<path style="fill:none;stroke:black;stroke-dasharray:1,5;" d="M834,223C834,234 834,251 834,264"/>
<polygon style="fill:black;stroke:black;" points="837,263 834,273 832,263 837,263"/>
<text text-anchor="middle" x="840" y="251" style="font-family:Helvetica;font-size:8.00;">0</text>
</g>
<g id="node19" class="node"><title>170</title>
<ellipse cx="933" cy="290" rx="22" ry="16" style="fill:none;stroke:black;"/>
<text text-anchor="middle" x="933" y="296" style="font-family:Helvetica;font-size:16.00;">x7</text>
</g>
<g id="edge37" class="edge"><title>174-&gt;170</title>
<path style="fill:none;stroke:black;" d="M849,218C865,232 893,256 912,272"/>
<polygon style="fill:black;stroke:black;" points="913,269 918,278 909,273 913,269"/>
<text text-anchor="middle" x="894" y="251" style="font-family:Helvetica;font-size:8.00;">1</text>
</g>
<g id="node38" class="node"><title>30</title>
<ellipse cx="249" cy="626" rx="22" ry="16" style="fill:none;stroke:black;"/>
<text text-anchor="middle" x="249" y="632" style="font-family:Helvetica;font-size:16.00;">x8</text>
</g>
<g id="edge41" class="edge"><title>74-&gt;30</title>
<path style="fill:none;stroke:black;" d="M117,307C119,332 126,382 139,423 168,510 160,557 221,611"/>
<polygon style="fill:black;stroke:black;" points="223,609 229,617 220,613 223,609"/>
<text text-anchor="middle" x="159" y="461" style="font-family:Helvetica;font-size:8.00;">1</text>
</g>
<g id="node41" class="node"><title>0</title>
<polygon style="fill:none;stroke:black;" points="172,694 136,694 136,716 172,716 172,694"/>
<text text-anchor="middle" x="154" y="711" style="font-family:Helvetica;font-size:16.00;">0</text>
</g>
<g id="edge39" class="edge"><title>74-&gt;0</title>
<path style="fill:none;stroke:black;stroke-dasharray:1,5;" d="M95,298C68,310 23,336 23,374 23,374 23,374 23,626 23,683 72,687 126,702"/>
<polygon style="fill:black;stroke:black;" points="127,700 136,704 126,704 127,700"/>
<text text-anchor="middle" x="29" y="503" style="font-family:Helvetica;font-size:8.00;">0</text>
</g>
<g id="node35" class="node"><title>29</title>
<ellipse cx="467" cy="542" rx="22" ry="16" style="fill:none;stroke:black;"/>
<text text-anchor="middle" x="467" y="548" style="font-family:Helvetica;font-size:16.00;">x6</text>
</g>
<g id="edge43" class="edge"><title>94-&gt;29</title>
<path style="fill:none;stroke:black;stroke-dasharray:1,5;" d="M430,307C437,350 454,464 462,515"/>
<polygon style="fill:black;stroke:black;" points="464,515 464,525 460,516 464,515"/>
<text text-anchor="middle" x="453" y="419" style="font-family:Helvetica;font-size:8.00;">0</text>
</g>
<g id="node36" class="node"><title>93</title>
<ellipse cx="667" cy="542" rx="22" ry="16" style="fill:none;stroke:black;"/>
<text text-anchor="middle" x="667" y="548" style="font-family:Helvetica;font-size:16.00;">x6</text>
</g>
<g id="edge45" class="edge"><title>94-&gt;93</title>
<path style="fill:none;stroke:black;" d="M448,296C494,310 605,344 618,357 638,380 655,470 663,515"/>
<polygon style="fill:black;stroke:black;" points="665,515 665,525 661,516 665,515"/>
<text text-anchor="middle" x="647" y="419" style="font-family:Helvetica;font-size:8.00;">1</text>
</g>
<g id="node30" class="node"><title>23</title>
<ellipse cx="263" cy="458" rx="22" ry="16" style="fill:none;stroke:black;"/>
<text text-anchor="middle" x="263" y="464" style="font-family:Helvetica;font-size:16.00;">x4</text>
</g>
<g id="edge47" class="edge"><title>128-&gt;23</title>
<path style="fill:none;stroke:black;stroke-dasharray:1,5;" d="M283,305C275,318 265,338 261,357 255,383 256,413 259,433"/>
<polygon style="fill:black;stroke:black;" points="261,431 260,441 256,431 261,431"/>
<text text-anchor="middle" x="267" y="377" style="font-family:Helvetica;font-size:8.00;">0</text>
</g>
<g id="node31" class="node"><title>127</title>
<ellipse cx="340" cy="458" rx="22" ry="16" style="fill:none;stroke:black;"/>
<text text-anchor="middle" x="340" y="464" style="font-family:Helvetica;font-size:16.00;">x4</text>
</g>
<g id="edge49" class="edge"><title>128-&gt;127</title>
<path style="fill:none;stroke:black;" d="M292,307C293,327 295,362 304,391 308,407 311,410 319,423 321,427 323,431 325,435"/>
<polygon style="fill:black;stroke:black;" points="327,433 330,443 323,436 327,433"/>
<text text-anchor="middle" x="309" y="377" style="font-family:Helvetica;font-size:8.00;">1</text>
</g>
<g id="node32" class="node"><title>125</title>
<ellipse cx="537" cy="458" rx="22" ry="16" style="fill:none;stroke:black;"/>
<text text-anchor="middle" x="537" y="464" style="font-family:Helvetica;font-size:16.00;">x4</text>
</g>
<g id="edge51" class="edge"><title>126-&gt;125</title>
<path style="fill:none;stroke:black;stroke-dasharray:1,5;" d="M522,307C525,336 531,397 534,431"/>
<polygon style="fill:black;stroke:black;" points="536,431 535,441 532,431 536,431"/>
<text text-anchor="middle" x="535" y="377" style="font-family:Helvetica;font-size:8.00;">0</text>
</g>
<g id="node33" class="node"><title>124</title>
<ellipse cx="734" cy="458" rx="22" ry="16" style="fill:none;stroke:black;"/>
<text text-anchor="middle" x="734" y="464" style="font-family:Helvetica;font-size:16.00;">x4</text>
</g>
<g id="edge53" class="edge"><title>126-&gt;124</title>
<path style="fill:none;stroke:black;" d="M540,297C567,308 616,329 651,357 679,380 705,414 720,436"/>
<polygon style="fill:black;stroke:black;" points="721,433 725,443 717,436 721,433"/>
<text text-anchor="middle" x="688" y="377" style="font-family:Helvetica;font-size:8.00;">1</text>
</g>
<g id="node21" class="node"><title>22</title>
<ellipse cx="165" cy="374" rx="22" ry="16" style="fill:none;stroke:black;"/>
<text text-anchor="middle" x="165" y="380" style="font-family:Helvetica;font-size:16.00;">x2</text>
</g>
<g id="edge55" class="edge"><title>179-&gt;22</title>
<path style="fill:none;stroke:black;stroke-dasharray:1,5;" d="M336,300C333,302 329,304 323,307 279,329 227,350 195,363"/>
<polygon style="fill:black;stroke:black;" points="195,366 185,367 193,361 195,366"/>
<text text-anchor="middle" x="295" y="335" style="font-family:Helvetica;font-size:8.00;">0</text>
</g>
<g id="node22" class="node"><title>178</title>
<ellipse cx="345" cy="374" rx="22" ry="16" style="fill:none;stroke:black;"/>
<text text-anchor="middle" x="345" y="380" style="font-family:Helvetica;font-size:16.00;">x2</text>
</g>
<g id="edge57" class="edge"><title>179-&gt;178</title>
<path style="fill:none;stroke:black;" d="M352,307C351,318 350,335 348,348"/>
<polygon style="fill:black;stroke:black;" points="351,347 347,357 346,347 351,347"/>
<text text-anchor="middle" x="354" y="335" style="font-family:Helvetica;font-size:8.00;">1</text>
</g>
<g id="node23" class="node"><title>176</title>
<ellipse cx="587" cy="374" rx="22" ry="16" style="fill:none;stroke:black;"/>
<text text-anchor="middle" x="587" y="380" style="font-family:Helvetica;font-size:16.00;">x2</text>
</g>
<g id="edge59" class="edge"><title>177-&gt;176</title>
<path style="fill:none;stroke:black;stroke-dasharray:1,5;" d="M689,302C668,316 634,341 610,357"/>
<polygon style="fill:black;stroke:black;" points="613,358 603,362 610,354 613,358"/>
<text text-anchor="middle" x="662" y="335" style="font-family:Helvetica;font-size:8.00;">0</text>
</g>
<g id="node24" class="node"><title>175</title>
<ellipse cx="743" cy="374" rx="22" ry="16" style="fill:none;stroke:black;"/>
<text text-anchor="middle" x="743" y="380" style="font-family:Helvetica;font-size:16.00;">x2</text>
</g>
<g id="edge61" class="edge"><title>177-&gt;175</title>
<path style="fill:none;stroke:black;" d="M712,306C715,312 718,319 721,325 725,333 728,342 732,350"/>
<polygon style="fill:black;stroke:black;" points="734,348 736,358 729,350 734,348"/>
<text text-anchor="middle" x="729" y="335" style="font-family:Helvetica;font-size:8.00;">1</text>
</g>
<g id="node25" class="node"><title>172</title>
<ellipse cx="805" cy="374" rx="22" ry="16" style="fill:none;stroke:black;"/>
<text text-anchor="middle" x="805" y="380" style="font-family:Helvetica;font-size:16.00;">x2</text>
</g>
<g id="edge63" class="edge"><title>173-&gt;172</title>
<path style="fill:none;stroke:black;stroke-dasharray:1,5;" d="M828,306C824,318 818,335 814,349"/>
<polygon style="fill:black;stroke:black;" points="817,349 811,358 812,348 817,349"/>
<text text-anchor="middle" x="827" y="335" style="font-family:Helvetica;font-size:8.00;">0</text>
</g>
<g id="node26" class="node"><title>171</title>
<ellipse cx="867" cy="374" rx="22" ry="16" style="fill:none;stroke:black;"/>
<text text-anchor="middle" x="867" y="380" style="font-family:Helvetica;font-size:16.00;">x2</text>
</g>
<g id="edge65" class="edge"><title>173-&gt;171</title>
<path style="fill:none;stroke:black;" d="M840,306C845,318 852,335 858,349"/>
<polygon style="fill:black;stroke:black;" points="860,348 861,358 855,349 860,348"/>
<text text-anchor="middle" x="857" y="335" style="font-family:Helvetica;font-size:8.00;">1</text>
</g>
<g id="node27" class="node"><title>169</title>
<ellipse cx="933" cy="374" rx="22" ry="16" style="fill:none;stroke:black;"/>
<text text-anchor="middle" x="933" y="380" style="font-family:Helvetica;font-size:16.00;">x2</text>
</g>
<g id="edge67" class="edge"><title>170-&gt;169</title>
<path style="fill:none;stroke:black;stroke-dasharray:1,5;" d="M933,307C933,318 933,335 933,348"/>
<polygon style="fill:black;stroke:black;" points="936,347 933,357 931,347 936,347"/>
<text text-anchor="middle" x="939" y="335" style="font-family:Helvetica;font-size:8.00;">0</text>
</g>
<g id="node28" class="node"><title>168</title>
<ellipse cx="999" cy="374" rx="22" ry="16" style="fill:none;stroke:black;"/>
<text text-anchor="middle" x="999" y="380" style="font-family:Helvetica;font-size:16.00;">x2</text>
</g>
<g id="edge69" class="edge"><title>170-&gt;168</title>
<path style="fill:none;stroke:black;" d="M944,304C954,317 971,337 983,353"/>
<polygon style="fill:black;stroke:black;" points="984,350 988,360 980,353 984,350"/>
<text text-anchor="middle" x="975" y="335" style="font-family:Helvetica;font-size:8.00;">1</text>
</g>
<g id="node40" class="node"><title>1</title>
<polygon style="fill:none;stroke:black;" points="609,694 573,694 573,716 609,716 609,694"/>
<text text-anchor="middle" x="591" y="711" style="font-family:Helvetica;font-size:16.00;">1</text>
</g>
<g id="edge73" class="edge"><title>22-&gt;1</title>
<path style="fill:none;stroke:black;" d="M164,391C159,448 148,635 188,675 214,703 493,702 532,703 543,704 554,705 564,705"/>
<polygon style="fill:black;stroke:black;" points="563,702 573,705 563,707 563,702"/>
<text text-anchor="middle" x="164" y="545" style="font-family:Helvetica;font-size:8.00;">1</text>
</g>
<g id="edge71" class="edge"><title>22-&gt;0</title>
<path style="fill:none;stroke:black;stroke-dasharray:1,5;" d="M145,381C117,393 69,418 69,458 69,458 69,458 69,626 69,651 77,658 94,675 104,685 116,691 128,696"/>
<polygon style="fill:black;stroke:black;" points="128,693 136,699 126,698 128,693"/>
<text text-anchor="middle" x="75" y="545" style="font-family:Helvetica;font-size:8.00;">0</text>
</g>
<g id="edge75" class="edge"><title>178-&gt;30</title>
<path style="fill:none;stroke:black;stroke-dasharray:1,5;" d="M328,385C325,387 321,389 318,391 280,414 254,403 232,441 203,492 223,564 238,601"/>
<polygon style="fill:black;stroke:black;" points="240,600 242,610 236,602 240,600"/>
<text text-anchor="middle" x="222" y="503" style="font-family:Helvetica;font-size:8.00;">0</text>
</g>
<g id="edge77" class="edge"><title>178-&gt;1</title>
<path style="fill:none;stroke:black;" d="M340,390C338,400 337,413 343,423 350,436 361,430 371,441 409,485 397,509 426,559 447,599 454,608 482,643 493,659 495,664 511,675 533,692 541,692 567,702 567,702 567,702 567,702"/>
<polygon style="fill:black;stroke:black;" points="564,698 573,704 563,703 564,698"/>
<text text-anchor="middle" x="431" y="545" style="font-family:Helvetica;font-size:8.00;">1</text>
</g>
<g id="edge79" class="edge"><title>176-&gt;29</title>
<path style="fill:none;stroke:black;stroke-dasharray:1,5;" d="M577,389C569,400 557,414 543,423 523,437 509,424 494,441 474,462 469,495 467,517"/>
<polygon style="fill:black;stroke:black;" points="470,515 467,525 465,515 470,515"/>
<text text-anchor="middle" x="500" y="461" style="font-family:Helvetica;font-size:8.00;">0</text>
</g>
<g id="edge81" class="edge"><title>176-&gt;1</title>
<path style="fill:none;stroke:black;" d="M588,391C589,408 591,435 591,458 591,458 591,458 591,626 591,646 591,670 591,685"/>
<polygon style="fill:black;stroke:black;" points="594,683 591,693 589,683 594,683"/>
<text text-anchor="middle" x="596" y="545" style="font-family:Helvetica;font-size:8.00;">1</text>
</g>
<g id="edge83" class="edge"><title>175-&gt;93</title>
<path style="fill:none;stroke:black;stroke-dasharray:1,5;" d="M730,387C718,400 701,421 691,441 679,466 673,497 670,518"/>
<polygon style="fill:black;stroke:black;" points="673,515 669,525 668,515 673,515"/>
<text text-anchor="middle" x="697" y="461" style="font-family:Helvetica;font-size:8.00;">0</text>
</g>
<g id="edge85" class="edge"><title>175-&gt;1</title>
<path style="fill:none;stroke:black;" d="M751,390C759,410 772,445 765,475 740,576 718,601 647,675 635,688 633,695 619,702"/>
<polygon style="fill:black;stroke:black;" points="619,704 609,704 618,700 619,704"/>
<text text-anchor="middle" x="755" y="545" style="font-family:Helvetica;font-size:8.00;">1</text>
</g>
<g id="edge87" class="edge"><title>172-&gt;23</title>
<path style="fill:none;stroke:black;stroke-dasharray:1,5;" d="M788,385C784,387 779,390 774,391 610,437 559,375 393,409 356,417 315,433 290,445"/>
<polygon style="fill:black;stroke:black;" points="292,447 282,449 290,442 292,447"/>
<text text-anchor="middle" x="692" y="419" style="font-family:Helvetica;font-size:8.00;">0</text>
</g>
<g id="edge89" class="edge"><title>172-&gt;1</title>
<path style="fill:none;stroke:black;" d="M812,390C819,406 829,434 829,458 829,458 829,458 829,626 829,724 716,683 620,703 620,703 620,703 619,703"/>
<polygon style="fill:black;stroke:black;" points="619,705 609,704 619,701 619,705"/>
<text text-anchor="middle" x="834" y="545" style="font-family:Helvetica;font-size:8.00;">1</text>
</g>
<g id="edge91" class="edge"><title>171-&gt;127</title>
<path style="fill:none;stroke:black;stroke-dasharray:1,5;" d="M850,385C846,387 841,390 836,391 736,421 705,396 603,409 518,420 420,441 371,451"/>
<polygon style="fill:black;stroke:black;" points="371,453 361,453 370,449 371,453"/>
<text text-anchor="middle" x="625" y="419" style="font-family:Helvetica;font-size:8.00;">0</text>
</g>
<g id="edge93" class="edge"><title>171-&gt;1</title>
<path style="fill:none;stroke:black;" d="M870,390C880,440 900,589 830,675 815,694 808,700 785,703 777,705 671,705 619,705"/>
<polygon style="fill:black;stroke:black;" points="619,707 609,705 619,702 619,707"/>
<text text-anchor="middle" x="883" y="545" style="font-family:Helvetica;font-size:8.00;">1</text>
</g>
<g id="edge95" class="edge"><title>169-&gt;125</title>
<path style="fill:none;stroke:black;stroke-dasharray:1,5;" d="M915,384C910,387 904,389 898,391 836,412 644,442 568,454"/>
<polygon style="fill:black;stroke:black;" points="569,456 559,455 569,451 569,456"/>
<text text-anchor="middle" x="835" y="419" style="font-family:Helvetica;font-size:8.00;">0</text>
</g>
<g id="edge97" class="edge"><title>169-&gt;1</title>
<path style="fill:none;stroke:black;" d="M939,390C945,407 953,434 953,458 953,458 953,458 953,626 953,703 873,685 799,702 795,703 795,703 792,703 775,705 670,705 619,705"/>
<polygon style="fill:black;stroke:black;" points="619,707 609,705 619,702 619,707"/>
<text text-anchor="middle" x="958" y="545" style="font-family:Helvetica;font-size:8.00;">1</text>
</g>
<g id="edge99" class="edge"><title>168-&gt;124</title>
<path style="fill:none;stroke:black;stroke-dasharray:1,5;" d="M985,387C971,398 950,415 929,423 874,446 807,454 767,456"/>
<polygon style="fill:black;stroke:black;" points="766,459 756,457 766,454 766,459"/>
<text text-anchor="middle" x="962" y="419" style="font-family:Helvetica;font-size:8.00;">0</text>
</g>
<g id="edge101" class="edge"><title>168-&gt;1</title>
<path style="fill:none;stroke:black;" d="M1011,388C1022,404 1039,432 1039,458 1039,458 1039,458 1039,626 1039,671 991,656 952,675 921,691 913,696 880,701 868,703 865,703 854,703 830,705 683,705 620,705"/>
<polygon style="fill:black;stroke:black;" points="619,707 609,705 619,702 619,707"/>
<text text-anchor="middle" x="1044" y="545" style="font-family:Helvetica;font-size:8.00;">1</text>
</g>
<g id="edge105" class="edge"><title>23-&gt;1</title>
<path style="fill:none;stroke:black;" d="M263,475C264,495 268,531 281,559 309,623 322,647 386,675 452,706 475,693 548,702 551,703 552,703 556,703 558,703 561,704 564,704"/>
<polygon style="fill:black;stroke:black;" points="563,701 573,704 563,706 563,701"/>
<text text-anchor="middle" x="298" y="587" style="font-family:Helvetica;font-size:8.00;">1</text>
</g>
<g id="edge103" class="edge"><title>23-&gt;0</title>
<path style="fill:none;stroke:black;stroke-dasharray:1,5;" d="M256,474C237,517 185,636 163,684"/>
<polygon style="fill:black;stroke:black;" points="165,685 159,693 161,683 165,685"/>
<text text-anchor="middle" x="216" y="587" style="font-family:Helvetica;font-size:8.00;">0</text>
</g>
<g id="edge107" class="edge"><title>127-&gt;30</title>
<path style="fill:none;stroke:black;stroke-dasharray:1,5;" d="M332,474C315,503 281,567 262,602"/>
<polygon style="fill:black;stroke:black;" points="264,603 257,611 260,601 264,603"/>
<text text-anchor="middle" x="309" y="545" style="font-family:Helvetica;font-size:8.00;">0</text>
</g>
<g id="edge109" class="edge"><title>127-&gt;1</title>
<path style="fill:none;stroke:black;" d="M338,474C335,509 333,591 372,643 398,680 518,697 564,703"/>
<polygon style="fill:black;stroke:black;" points="563,700 573,704 563,705 563,700"/>
<text text-anchor="middle" x="351" y="587" style="font-family:Helvetica;font-size:8.00;">1</text>
</g>
<g id="edge111" class="edge"><title>125-&gt;29</title>
<path style="fill:none;stroke:black;stroke-dasharray:1,5;" d="M525,472C514,486 497,506 484,521"/>
<polygon style="fill:black;stroke:black;" points="487,521 479,528 483,518 487,521"/>
<text text-anchor="middle" x="513" y="503" style="font-family:Helvetica;font-size:8.00;">0</text>
</g>
<g id="edge113" class="edge"><title>125-&gt;1</title>
<path style="fill:none;stroke:black;" d="M539,475C542,512 554,603 577,675 578,678 579,682 580,684"/>
<polygon style="fill:black;stroke:black;" points="582,683 584,693 578,685 582,683"/>
<text text-anchor="middle" x="560" y="587" style="font-family:Helvetica;font-size:8.00;">1</text>
</g>
<g id="edge115" class="edge"><title>124-&gt;93</title>
<path style="fill:none;stroke:black;stroke-dasharray:1,5;" d="M723,472C713,485 696,505 684,521"/>
<polygon style="fill:black;stroke:black;" points="687,521 679,528 683,518 687,521"/>
<text text-anchor="middle" x="711" y="503" style="font-family:Helvetica;font-size:8.00;">0</text>
</g>
<g id="edge117" class="edge"><title>124-&gt;1</title>
<path style="fill:none;stroke:black;" d="M730,475C728,484 725,496 721,507 698,572 687,587 649,643 633,665 631,679 617,692"/>
<polygon style="fill:black;stroke:black;" points="619,694 609,698 616,690 619,694"/>
<text text-anchor="middle" x="696" y="587" style="font-family:Helvetica;font-size:8.00;">1</text>
</g>
<g id="edge121" class="edge"><title>29-&gt;1</title>
<path style="fill:none;stroke:black;" d="M471,558C478,586 497,641 531,675 540,685 553,692 565,697"/>
<polygon style="fill:black;stroke:black;" points="565,694 573,700 563,699 565,694"/>
<text text-anchor="middle" x="509" y="629" style="font-family:Helvetica;font-size:8.00;">1</text>
</g>
<g id="edge119" class="edge"><title>29-&gt;0</title>
<path style="fill:none;stroke:black;stroke-dasharray:1,5;" d="M455,556C430,583 369,645 306,675 266,695 214,702 182,704"/>
<polygon style="fill:black;stroke:black;" points="182,706 172,704 182,701 182,706"/>
<text text-anchor="middle" x="407" y="629" style="font-family:Helvetica;font-size:8.00;">0</text>
</g>
<g id="edge123" class="edge"><title>93-&gt;30</title>
<path style="fill:none;stroke:black;stroke-dasharray:1,5;" d="M649,552C629,564 592,582 559,591 484,612 462,601 386,609 349,613 307,619 280,622"/>
<polygon style="fill:black;stroke:black;" points="281,624 271,623 281,619 281,624"/>
<text text-anchor="middle" x="606" y="587" style="font-family:Helvetica;font-size:8.00;">0</text>
</g>
<g id="edge125" class="edge"><title>93-&gt;1</title>
<path style="fill:none;stroke:black;" d="M660,558C647,587 617,650 602,683"/>
<polygon style="fill:black;stroke:black;" points="604,685 597,693 599,683 604,685"/>
<text text-anchor="middle" x="640" y="629" style="font-family:Helvetica;font-size:8.00;">1</text>
</g>
<g id="edge129" class="edge"><title>30-&gt;1</title>
<path style="fill:none;stroke:black;" d="M258,641C265,653 277,668 292,675 315,687 494,700 563,704"/>
<polygon style="fill:black;stroke:black;" points="563,701 573,704 563,706 563,701"/>
<text text-anchor="middle" x="297" y="671" style="font-family:Helvetica;font-size:8.00;">1</text>
</g>
<g id="edge127" class="edge"><title>30-&gt;0</title>
<path style="fill:none;stroke:black;stroke-dasharray:1,5;" d="M234,638C218,652 193,673 175,688"/>
<polygon style="fill:black;stroke:black;" points="178,689 168,693 175,685 178,689"/>
<text text-anchor="middle" x="212" y="671" style="font-family:Helvetica;font-size:8.00;">0</text>
</g>
</g></svg>
