<?xml version="1.0" encoding="UTF-8" standalone="no"?>
<!DOCTYPE svg PUBLIC "-//W3C//DTD SVG 1.0//EN"
 "http://www.w3.org/TR/2001/REC-SVG-20010904/DTD/svg10.dtd">
<!-- Generated by dot version 1.10 (Wed Jul 9 23:09:17 EDT 2003)
     Title: BDD    Pages: 1 -->
<svg width="189" height="241"
 viewBox = "-1 -1 275 303"
 xmlns="http://www.w3.org/2000/svg">
<g id="graph0" class="graph" style="font-family:Times-Roman;font-size:14.00;">
<title>BDD</title>
<g id="node2" class="node"><title>27</title>
<ellipse cx="102" cy="29" rx="20" ry="16" style="fill:none;stroke:black;"/>
<text text-anchor="middle" x="102" y="35" style="font-family:Helvetica;font-size:16.00;">x1</text>
</g>
<g id="node4" class="node"><title>26</title>
<ellipse cx="131" cy="113" rx="22" ry="16" style="fill:none;stroke:black;"/>
<text text-anchor="middle" x="131" y="119" style="font-family:Helvetica;font-size:16.00;">x2</text>
</g>
<g id="edge6" class="edge"><title>27-&gt;26</title>
<path style="fill:none;stroke:black;stroke-dasharray:1,5;" d="M108,45C112,57 118,74 122,88"/>
<polygon style="fill:black;stroke:black;" points="124,87 125,97 119,88 124,87"/>
<text text-anchor="middle" x="123" y="74" style="font-family:Helvetica;font-size:8.00;">0</text>
</g>
<g id="node5" class="node"><title>21</title>
<ellipse cx="69" cy="113" rx="22" ry="16" style="fill:none;stroke:black;"/>
<text text-anchor="middle" x="69" y="119" style="font-family:Helvetica;font-size:16.00;">x2</text>
</g>
<g id="edge8" class="edge"><title>27-&gt;21</title>
<path style="fill:none;stroke:black;" d="M96,45C91,57 84,74 78,88"/>
<polygon style="fill:black;stroke:black;" points="81,88 75,97 76,87 81,88"/>
<text text-anchor="middle" x="93" y="74" style="font-family:Helvetica;font-size:8.00;">1</text>
</g>
<g id="node7" class="node"><title>17</title>
<ellipse cx="122" cy="197" rx="22" ry="16" style="fill:none;stroke:black;"/>
<text text-anchor="middle" x="122" y="203" style="font-family:Helvetica;font-size:16.00;">x3</text>
</g>
<g id="edge10" class="edge"><title>26-&gt;17</title>
<path style="fill:none;stroke:black;stroke-dasharray:1,5;" d="M129,130C128,141 127,158 125,171"/>
<polygon style="fill:black;stroke:black;" points="128,170 124,180 123,170 128,170"/>
<text text-anchor="middle" x="132" y="158" style="font-family:Helvetica;font-size:8.00;">0</text>
</g>
<g id="node8" class="node"><title>24</title>
<ellipse cx="184" cy="197" rx="22" ry="16" style="fill:none;stroke:black;"/>
<text text-anchor="middle" x="184" y="203" style="font-family:Helvetica;font-size:16.00;">x3</text>
</g>
<g id="edge12" class="edge"><title>26-&gt;24</title>
<path style="fill:none;stroke:black;" d="M140,128C148,141 160,159 169,174"/>
<polygon style="fill:black;stroke:black;" points="171,172 174,182 167,175 171,172"/>
<text text-anchor="middle" x="165" y="158" style="font-family:Helvetica;font-size:8.00;">1</text>
</g>
<g id="node10" class="node"><title>1</title>
<polygon style="fill:none;stroke:black;" points="229,265 193,265 193,287 229,287 229,265"/>
<text text-anchor="middle" x="211" y="282" style="font-family:Helvetica;font-size:16.00;">1</text>
</g>
<g id="edge16" class="edge"><title>21-&gt;1</title>
<path style="fill:none;stroke:black;" d="M68,130C67,151 68,187 81,214 100,254 153,268 185,273"/>
<polygon style="fill:black;stroke:black;" points="183,270 193,274 183,275 183,270"/>
<text text-anchor="middle" x="86" y="200" style="font-family:Helvetica;font-size:8.00;">1</text>
</g>
<g id="node11" class="node"><title>0</title>
<polygon style="fill:none;stroke:black;" points="135,265 99,265 99,287 135,287 135,265"/>
<text text-anchor="middle" x="117" y="282" style="font-family:Helvetica;font-size:16.00;">0</text>
</g>
<g id="edge14" class="edge"><title>21-&gt;0</title>
<path style="fill:none;stroke:black;stroke-dasharray:1,5;" d="M59,128C47,147 29,183 37,214 42,231 45,235 57,246 67,256 79,262 91,267"/>
<polygon style="fill:black;stroke:black;" points="91,264 99,270 89,269 91,264"/>
<text text-anchor="middle" x="45" y="200" style="font-family:Helvetica;font-size:8.00;">0</text>
</g>
<g id="edge18" class="edge"><title>17-&gt;1</title>
<path style="fill:none;stroke:black;stroke-dasharray:1,5;" d="M139,208C148,215 161,223 171,232 179,240 188,249 195,257"/>
<polygon style="fill:black;stroke:black;" points="196,255 201,264 193,258 196,255"/>
<text text-anchor="middle" x="188" y="242" style="font-family:Helvetica;font-size:8.00;">0</text>
</g>
<g id="edge20" class="edge"><title>17-&gt;0</title>
<path style="fill:none;stroke:black;" d="M121,214C120,226 119,243 118,255"/>
<polygon style="fill:black;stroke:black;" points="121,254 118,264 116,254 121,254"/>
<text text-anchor="middle" x="124" y="242" style="font-family:Helvetica;font-size:8.00;">1</text>
</g>
<g id="edge24" class="edge"><title>24-&gt;1</title>
<path style="fill:none;stroke:black;" d="M202,207C211,213 222,221 227,232 231,240 228,248 225,256"/>
<polygon style="fill:black;stroke:black;" points="227,257 220,264 223,254 227,257"/>
<text text-anchor="middle" x="233" y="242" style="font-family:Helvetica;font-size:8.00;">1</text>
</g>
<g id="edge22" class="edge"><title>24-&gt;0</title>
<path style="fill:none;stroke:black;stroke-dasharray:1,5;" d="M172,211C161,224 145,243 133,257"/>
<polygon style="fill:black;stroke:black;" points="135,258 127,264 132,255 135,258"/>
<text text-anchor="middle" x="161" y="242" style="font-family:Helvetica;font-size:8.00;">0</text>
</g>
</g></svg>
