<svg height="200" width="200"><rect width="200" height="200" style="fill:rgb(255,255,255)" /><text x="190.0" y="100.0" fill="black" dominant-baseline="middle" text-anchor="middle">0</text><text x="156.11408216728603" y="170.36483342212267" fill="black" dominant-baseline="middle" text-anchor="middle">1</text><text x="79.9731159439317" y="187.74351209636413" fill="black" dominant-baseline="middle" text-anchor="middle">2</text><text x="18.912801888782283" y="139.04953652058023" fill="black" dominant-baseline="middle" text-anchor="middle">3</text><text x="18.912801888782283" y="60.95046347941978" fill="black" dominant-baseline="middle" text-anchor="middle">4</text><text x="79.97311594393169" y="12.256487903635872" fill="black" dominant-baseline="middle" text-anchor="middle">5</text><text x="156.114082167286" y="29.635166577877314" fill="black" dominant-baseline="middle" text-anchor="middle">6</text><line x1="82.19832528349482" y1="22.005767025454105" x2="149.87918414869867" y2="37.45348140255761" style="stroke:rgb(0, 0, 255);stroke-width:2" /><line x1="27.922490567806463" y1="65.28930087059535" x2="149.87918414869867" y2="37.45348140255761" style="stroke:rgb(0, 0, 255);stroke-width:2" /><line x1="27.922490567806477" y1="134.71069912940465" x2="149.87918414869867" y2="37.45348140255761" style="stroke:rgb(0, 255, 0);stroke-width:2" /><line x1="82.19832528349485" y1="177.9942329745459" x2="149.87918414869867" y2="37.45348140255761" style="stroke:rgb(0, 255, 0);stroke-width:2" /><line x1="149.8791841486987" y1="162.5465185974424" x2="149.87918414869867" y2="37.45348140255761" style="stroke:rgb(255, 0, 0);stroke-width:2" /><line x1="180.0" y1="100.0" x2="149.87918414869867" y2="37.45348140255761" style="stroke:rgb(255, 0, 0);stroke-width:2" /><line x1="27.922490567806463" y1="65.28930087059535" x2="82.19832528349482" y2="22.005767025454105" style="stroke:rgb(255, 0, 0);stroke-width:2" /><line x1="27.922490567806477" y1="134.71069912940465" x2="82.19832528349482" y2="22.005767025454105" style="stroke:rgb(0, 0, 255);stroke-width:2" /><line x1="82.19832528349485" y1="177.9942329745459" x2="82.19832528349482" y2="22.005767025454105" style="stroke:rgb(0, 255, 0);stroke-width:2" /><line x1="149.8791841486987" y1="162.5465185974424" x2="82.19832528349482" y2="22.005767025454105" style="stroke:rgb(0, 0, 255);stroke-width:2" /><line x1="180.0" y1="100.0" x2="82.19832528349482" y2="22.005767025454105" style="stroke:rgb(255, 0, 0);stroke-width:2" /><line x1="27.922490567806477" y1="134.71069912940465" x2="27.922490567806463" y2="65.28930087059535" style="stroke:rgb(255, 0, 0);stroke-width:2" /><line x1="82.19832528349485" y1="177.9942329745459" x2="27.922490567806463" y2="65.28930087059535" style="stroke:rgb(0, 0, 255);stroke-width:2" /><line x1="149.8791841486987" y1="162.5465185974424" x2="27.922490567806463" y2="65.28930087059535" style="stroke:rgb(255, 0, 0);stroke-width:2" /><line x1="180.0" y1="100.0" x2="27.922490567806463" y2="65.28930087059535" style="stroke:rgb(0, 255, 0);stroke-width:2" /><line x1="82.19832528349485" y1="177.9942329745459" x2="27.922490567806477" y2="134.71069912940465" style="stroke:rgb(0, 0, 255);stroke-width:2" /><line x1="149.8791841486987" y1="162.5465185974424" x2="27.922490567806477" y2="134.71069912940465" style="stroke:rgb(0, 255, 0);stroke-width:2" /><line x1="180.0" y1="100.0" x2="27.922490567806477" y2="134.71069912940465" style="stroke:rgb(0, 0, 255);stroke-width:2" /><line x1="149.8791841486987" y1="162.5465185974424" x2="82.19832528349485" y2="177.9942329745459" style="stroke:rgb(255, 0, 0);stroke-width:2" /><line x1="180.0" y1="100.0" x2="82.19832528349485" y2="177.9942329745459" style="stroke:rgb(0, 255, 0);stroke-width:2" /><line x1="180.0" y1="100.0" x2="149.8791841486987" y2="162.5465185974424" style="stroke:rgb(0, 255, 0);stroke-width:2" /></svg>