<svg height="200" width="200"><rect width="200" height="200" /><text x="190.0" y="100.0" fill="white" dominant-baseline="middle" text-anchor="middle">0</text><text x="163.63961030678928" y="163.63961030678928" fill="white" dominant-baseline="middle" text-anchor="middle">1</text><text x="100.0" y="190.0" fill="white" dominant-baseline="middle" text-anchor="middle">2</text><text x="36.36038969321073" y="163.63961030678928" fill="white" dominant-baseline="middle" text-anchor="middle">3</text><text x="10.0" y="100.00000000000001" fill="white" dominant-baseline="middle" text-anchor="middle">4</text><text x="36.360389693210706" y="36.36038969321073" fill="white" dominant-baseline="middle" text-anchor="middle">5</text><text x="99.99999999999999" y="10.0" fill="white" dominant-baseline="middle" text-anchor="middle">6</text><text x="163.63961030678925" y="36.360389693210706" fill="white" dominant-baseline="middle" text-anchor="middle">7</text><line x1="180.0" y1="100.0" x2="43.4314575050762" y2="156.5685424949238" style="stroke:rgb(255, 255, 0);stroke-width:2" /><line x1="180.0" y1="100.0" x2="20.0" y2="100.00000000000001" style="stroke:rgb(0, 255, 0);stroke-width:2" /><line x1="180.0" y1="100.0" x2="43.43145750507618" y2="43.4314575050762" style="stroke:rgb(255, 0, 0);stroke-width:2" /><line x1="180.0" y1="100.0" x2="99.99999999999999" y2="20.0" style="stroke:rgb(255, 255, 0);stroke-width:2" /><line x1="180.0" y1="100.0" x2="156.5685424949238" y2="43.43145750507618" style="stroke:rgb(255, 0, 255);stroke-width:2" /><line x1="156.5685424949238" y1="156.5685424949238" x2="100.0" y2="180.0" style="stroke:rgb(0, 255, 255);stroke-width:2" /><line x1="156.5685424949238" y1="156.5685424949238" x2="43.43145750507618" y2="43.4314575050762" style="stroke:rgb(0, 255, 0);stroke-width:2" /><line x1="156.5685424949238" y1="156.5685424949238" x2="99.99999999999999" y2="20.0" style="stroke:rgb(0, 255, 0);stroke-width:2" /><line x1="156.5685424949238" y1="156.5685424949238" x2="156.5685424949238" y2="43.43145750507618" style="stroke:rgb(255, 0, 255);stroke-width:2" /><line x1="100.0" y1="180.0" x2="156.5685424949238" y2="156.5685424949238" style="stroke:rgb(0, 0, 255);stroke-width:2" /><line x1="100.0" y1="180.0" x2="20.0" y2="100.00000000000001" style="stroke:rgb(0, 0, 255);stroke-width:2" /><line x1="100.0" y1="180.0" x2="156.5685424949238" y2="43.43145750507618" style="stroke:rgb(0, 255, 255);stroke-width:2" /><line x1="43.4314575050762" y1="156.5685424949238" x2="180.0" y2="100.0" style="stroke:rgb(0, 255, 0);stroke-width:2" /><line x1="43.4314575050762" y1="156.5685424949238" x2="20.0" y2="100.00000000000001" style="stroke:rgb(255, 0, 0);stroke-width:2" /><line x1="43.4314575050762" y1="156.5685424949238" x2="43.43145750507618" y2="43.4314575050762" style="stroke:rgb(0, 255, 0);stroke-width:2" /><line x1="43.4314575050762" y1="156.5685424949238" x2="99.99999999999999" y2="20.0" style="stroke:rgb(0, 0, 255);stroke-width:2" /><line x1="43.4314575050762" y1="156.5685424949238" x2="156.5685424949238" y2="43.43145750507618" style="stroke:rgb(255, 0, 0);stroke-width:2" /><line x1="20.0" y1="100.00000000000001" x2="180.0" y2="100.0" style="stroke:rgb(255, 0, 0);stroke-width:2" /><line x1="20.0" y1="100.00000000000001" x2="100.0" y2="180.0" style="stroke:rgb(255, 255, 0);stroke-width:2" /><line x1="20.0" y1="100.00000000000001" x2="43.4314575050762" y2="156.5685424949238" style="stroke:rgb(255, 0, 255);stroke-width:2" /><line x1="20.0" y1="100.00000000000001" x2="156.5685424949238" y2="43.43145750507618" style="stroke:rgb(255, 0, 0);stroke-width:2" /><line x1="43.43145750507618" y1="43.4314575050762" x2="180.0" y2="100.0" style="stroke:rgb(0, 255, 0);stroke-width:2" /><line x1="43.43145750507618" y1="43.4314575050762" x2="156.5685424949238" y2="156.5685424949238" style="stroke:rgb(0, 255, 255);stroke-width:2" /><line x1="43.43145750507618" y1="43.4314575050762" x2="43.4314575050762" y2="156.5685424949238" style="stroke:rgb(0, 255, 0);stroke-width:2" /><line x1="43.43145750507618" y1="43.4314575050762" x2="99.99999999999999" y2="20.0" style="stroke:rgb(255, 0, 255);stroke-width:2" /><line x1="43.43145750507618" y1="43.4314575050762" x2="156.5685424949238" y2="43.43145750507618" style="stroke:rgb(0, 255, 0);stroke-width:2" /><line x1="99.99999999999999" y1="20.0" x2="180.0" y2="100.0" style="stroke:rgb(0, 0, 255);stroke-width:2" /><line x1="99.99999999999999" y1="20.0" x2="156.5685424949238" y2="156.5685424949238" style="stroke:rgb(0, 255, 0);stroke-width:2" /><line x1="99.99999999999999" y1="20.0" x2="43.4314575050762" y2="156.5685424949238" style="stroke:rgb(0, 255, 0);stroke-width:2" /><line x1="99.99999999999999" y1="20.0" x2="43.43145750507618" y2="43.4314575050762" style="stroke:rgb(255, 255, 0);stroke-width:2" /><line x1="99.99999999999999" y1="20.0" x2="156.5685424949238" y2="43.43145750507618" style="stroke:rgb(255, 255, 0);stroke-width:2" /><line x1="156.5685424949238" y1="43.43145750507618" x2="180.0" y2="100.0" style="stroke:rgb(0, 255, 0);stroke-width:2" /><line x1="156.5685424949238" y1="43.43145750507618" x2="156.5685424949238" y2="156.5685424949238" style="stroke:rgb(0, 0, 255);stroke-width:2" /><line x1="156.5685424949238" y1="43.43145750507618" x2="100.0" y2="180.0" style="stroke:rgb(255, 0, 0);stroke-width:2" /><line x1="156.5685424949238" y1="43.43145750507618" x2="43.4314575050762" y2="156.5685424949238" style="stroke:rgb(0, 255, 0);stroke-width:2" /><line x1="156.5685424949238" y1="43.43145750507618" x2="20.0" y2="100.00000000000001" style="stroke:rgb(255, 0, 0);stroke-width:2" /><line x1="156.5685424949238" y1="43.43145750507618" x2="43.43145750507618" y2="43.4314575050762" style="stroke:rgb(255, 255, 0);stroke-width:2" /><line x1="156.5685424949238" y1="43.43145750507618" x2="99.99999999999999" y2="20.0" style="stroke:rgb(0, 255, 0);stroke-width:2" /></svg>
