<svg version="1.1" id="Uploaded to svgrepo.com" xmlns="http://www.w3.org/2000/svg" xmlns:xlink="http://www.w3.org/1999/xlink" x="0px" y="0px"
	 width="32px" height="32px" viewBox="0 0 32 32" xml:space="preserve">
<style type="text/css">
	.stone_een{fill:#0B1719;}
	.st0{fill:#0B1719;}
</style>
<path class="stone_een" d="M22,19h-6v-1h6V19z M16,14h-6v1h6V14z M12,10H6v1h6V10z M23,23h3v-1h-3V23z M30,8v17c0,1.657-1.343,3-3,3
	H5c-1.657,0-3-1.343-3-3V8c0-1.657,1.343-3,3-3h2V3.5C7,3.224,7.224,3,7.5,3S8,3.224,8,3.5V5h1V3.5C9,3.224,9.224,3,9.5,3
	S10,3.224,10,3.5V5h12V3.5C22,3.224,22.224,3,22.5,3S23,3.224,23,3.5V5h1V3.5C24,3.224,24.224,3,24.5,3S25,3.224,25,3.5V5h2
	C28.657,5,30,6.343,30,8z M6,12h6c0.552,0,1-0.448,1-1v-1c0-0.552-0.448-1-1-1H6c-0.552,0-1,0.448-1,1v1C5,11.552,5.448,12,6,12z
	 M10,16h6c0.552,0,1-0.448,1-1v-1c0-0.552-0.448-1-1-1h-6c-0.552,0-1,0.448-1,1v1C9,15.552,9.448,16,10,16z M16,20h6
	c0.552,0,1-0.448,1-1v-1c0-0.552-0.448-1-1-1h-6c-0.552,0-1,0.448-1,1v1C15,19.552,15.448,20,16,20z M27,22c0-0.552-0.448-1-1-1h-3
	c-0.552,0-1,0.448-1,1v1c0,0.552,0.448,1,1,1h3c0.552,0,1-0.448,1-1V22z" style="fill:rgb(255,255,255)"/>
</svg>
